<svg width="32" height="32" viewBox="0 0 32 32" fill="none" xmlns="http://www.w3.org/2000/svg">
  <!-- Background circle with gradient -->
  <defs>
    <linearGradient id="bgGradient" x1="0%" y1="0%" x2="100%" y2="100%">
      <stop offset="0%" style="stop-color:#3B82F6;stop-opacity:1" />
      <stop offset="100%" style="stop-color:#1D4ED8;stop-opacity:1" />
    </linearGradient>
    <linearGradient id="textGradient" x1="0%" y1="0%" x2="100%" y2="100%">
      <stop offset="0%" style="stop-color:#FFFFFF;stop-opacity:1" />
      <stop offset="100%" style="stop-color:#E5E7EB;stop-opacity:1" />
    </linearGradient>
  </defs>
  
  <!-- Main background circle -->
  <circle cx="16" cy="16" r="15" fill="url(#bgGradient)" stroke="#1E40AF" stroke-width="1"/>
  
  <!-- AI/Neural network dots -->
  <circle cx="12" cy="10" r="1.5" fill="url(#textGradient)"/>
  <circle cx="20" cy="10" r="1.5" fill="url(#textGradient)"/>
  <circle cx="16" cy="14" r="1.5" fill="url(#textGradient)"/>
  <circle cx="10" cy="18" r="1.5" fill="url(#textGradient)"/>
  <circle cx="22" cy="18" r="1.5" fill="url(#textGradient)"/>
  <circle cx="16" cy="22" r="1.5" fill="url(#textGradient)"/>
  
  <!-- Neural network connections -->
  <path d="M12 10 L16 14 L20 10" stroke="url(#textGradient)" stroke-width="1" fill="none" opacity="0.6"/>
  <path d="M16 14 L10 18 L22 18" stroke="url(#textGradient)" stroke-width="1" fill="none" opacity="0.6"/>
  <path d="M10 18 L16 22 L22 18" stroke="url(#textGradient)" stroke-width="1" fill="none" opacity="0.6"/>
  
  <!-- Voice wave lines -->
  <path d="M8 26 Q10 24 12 26 Q14 28 16 26 Q18 24 20 26 Q22 28 24 26" stroke="url(#textGradient)" stroke-width="2" fill="none"/>
  
  <!-- English "E" letter -->
  <path d="M14 6 L18 6 L18 7 L15 7 L15 8 L17 8 L17 9 L15 9 L15 10 L18 10 L18 11 L14 11 Z" fill="url(#textGradient)"/>
</svg> 